<?xml version="1.0" encoding="UTF-8" standalone="no"?>
<!-- Created with Inkscape (http://www.inkscape.org/) -->

<svg
   xmlns:dc="http://purl.org/dc/elements/1.1/"
   xmlns:cc="http://creativecommons.org/ns#"
   xmlns:rdf="http://www.w3.org/1999/02/22-rdf-syntax-ns#"
   xmlns:svg="http://www.w3.org/2000/svg"
   xmlns="http://www.w3.org/2000/svg"
   xmlns:sodipodi="http://sodipodi.sourceforge.net/DTD/sodipodi-0.dtd"
   xmlns:inkscape="http://www.inkscape.org/namespaces/inkscape"
   width="1459.6289"
   height="518.77887"
   id="svg3280"
   version="1.1"
   inkscape:version="0.48.5 r10040"
   sodipodi:docname="Badge.svg">
  <defs
     id="defs3282" />
  <sodipodi:namedview
     id="base"
     pagecolor="#ffffff"
     bordercolor="#666666"
     borderopacity="1.0"
     inkscape:pageopacity="0.0"
     inkscape:pageshadow="2"
     inkscape:zoom="0.22"
     inkscape:cx="1518.8932"
     inkscape:cy="1446.983"
     inkscape:document-units="px"
     inkscape:current-layer="layer1"
     showgrid="false"
     inkscape:window-width="1366"
     inkscape:window-height="705"
     inkscape:window-x="-8"
     inkscape:window-y="-8"
     inkscape:window-maximized="1"
     fit-margin-top="0"
     fit-margin-left="0"
     fit-margin-right="0"
     fit-margin-bottom="0" />
  <metadata
     id="metadata3285">
    <rdf:RDF>
      <cc:Work
         rdf:about="">
        <dc:format>image/svg+xml</dc:format>
        <dc:type
           rdf:resource="http://purl.org/dc/dcmitype/StillImage" />
        <dc:title></dc:title>
      </cc:Work>
    </rdf:RDF>
  </metadata>
  <g
     inkscape:label="Layer 1"
     inkscape:groupmode="layer"
     id="layer1"
     transform="translate(461.24302,-1244.6817)">
    <text
       xml:space="preserve"
       style="font-size:83.44462585px;font-style:normal;font-variant:normal;font-weight:bold;font-stretch:normal;text-align:center;line-height:100%;letter-spacing:0px;word-spacing:0px;text-anchor:middle;fill:#000000;fill-opacity:1;stroke:none;font-family:Segoe UI;-inkscape-font-specification:Sans Bold"
       x="268.57141"
       y="1761.4233"
       id="text3060-0-4-4"
       sodipodi:linespacing="100%"><tspan
         sodipodi:role="line"
         x="268.57138"
         y="1761.4233"
         style="font-size:166.88925171px;text-align:center;line-height:100%;text-anchor:middle"
         id="tspan3130-4-0-0">OSUrobotics.club</tspan></text>
    <path
       style="font-size:500px;font-style:normal;font-variant:normal;font-weight:bold;font-stretch:normal;line-height:125%;letter-spacing:-40px;word-spacing:0px;fill:#000000;fill-opacity:1;stroke:none;font-family:Segoe UI;-inkscape-font-specification:Sans Bold"
       sodipodi:nodetypes="sssscccsscsssssccc"
       inkscape:connector-curvature="0"
       id="path3029-9-3-8-7-7-5-9"
       d="m -291.32072,1606.7422 c -50.1303,0 -90.9836,-16.3167 -122.5591,-48.9502 -31.5755,-32.6334 -47.3633,-75.1545 -47.3632,-127.5635 -10e-5,-55.3383 16.0318,-100.0974 48.0957,-134.2773 32.0637,-34.1794 74.5441,-51.2692 127.4414,-51.2695 49.9672,3e-4 90.3728,16.3577 121.2158,49.0722 30.843,32.7151 46.264,75.8466 46.265,129.3946 0,55.0131 -15.992,99.3653 -47.974,133.0566 -31.983,33.6914 -73.6895,50.5371 -125.1216,50.5371 z m 3.4175,-294.1894 c -27.6694,2e-4 -49.6421,10.3762 -65.918,31.1279 -16.2761,20.7522 -24.4141,48.218 -24.414,82.3974 -10e-5,34.6681 8.1379,62.0932 24.414,82.2754 16.2759,20.1824 37.5975,30.2735 63.9649,30.2735 27.1808,0 48.7465,-9.8063 64.6972,-29.419 15.9503,-19.6125 23.9255,-46.8342 23.9258,-81.665 -3e-4,-36.2954 -7.7314,-64.5343 -23.1933,-84.7168 -15.4625,-20.182 -36.6213,-30.2732 -63.4766,-30.2734 z" />
    <path
       style="font-size:500px;font-style:normal;font-variant:normal;font-weight:bold;font-stretch:normal;line-height:125%;letter-spacing:-40px;word-spacing:0px;fill:#000000;fill-opacity:1;stroke:none;font-family:Segoe UI;-inkscape-font-specification:Sans Bold"
       sodipodi:nodetypes="csccsscccccccccccccccccccccccccscccccccccscc"
       inkscape:connector-curvature="0"
       id="path3031-27-4-6-4-1-1-4"
       d="m -146.26912,1544.7145 c -3.122,3.9497 -6.431,7.8067 -9.937,11.5 -31.983,33.6914 -61.907,51.2456 -113.3391,51.2456 l 198.1201,-0.7143 54.812,0 c 18.718,0 36.498,-1.7943 53.344,-5.375 16.846,-3.5807 31.617,-9.4681 44.31298,-17.6875 12.695,-8.2194 22.719,-18.9849 30.125,-32.25 7.405,-13.2649 11.124,-29.6562 11.125,-49.1875 0,-14.16 -2.113,-26.5579 -6.344,-37.2187 -4.232,-10.6607 -10.338,-20.1366 -18.313,-28.4376 -7.975,-8.3006 -17.538,-15.7517 -28.68698,-22.3437 -11.149,-6.5916 -23.722,-12.8279 -37.719,-18.6875 -10.254,-4.2316 -19.456,-8.3247 -27.594,-12.3125 -8.138,-3.9874 -15.053,-8.0681 -20.75,-12.2187 -5.696,-4.1502 -10.095,-8.5486 -13.187,-13.1876 -3.093,-4.6384 -4.625,-9.8903 -4.625,-15.75 0,-5.3708 1.389,-10.2178 4.156,-14.5312 2.767,-4.3129 6.673,-8.001 11.719,-11.0938 5.045,-3.0921 11.207,-5.5094 18.531,-7.2187 7.324,-1.7087 15.486,-2.5622 24.438,-2.5625 l 20.625,0 21.843,0 21.34398,0 38.028,0 0,-61.9997 -57.77798,-3e-4 -48.469,0 c -18.554,4e-4 -36.148,1.9815 -52.75,5.9688 -16.601,3.9879 -31.198,10.2242 -43.812,18.6874 -12.614,8.4639 -22.582,19.2419 -29.906,32.3438 -7.325,13.1025 -11,28.7711 -11,47 0,23.275 6.728,43.1239 20.156,59.5625 13.428,16.439 33.812,30.3569 61.156,41.75 10.742,4.3947 20.754,8.7058 30.031,12.9375 9.278,4.2319 17.277,8.6303 24.032,13.1875 6.754,4.5574 12.093,9.5354 16,14.9063 3.906,5.3712 5.874,11.4766 5.875,18.3124 0,5.0456 -1.215,9.7182 -3.657,14.0313 -2.441,4.3132 -6.161,8.0451 -11.125,11.2187 -4.964,3.174 -11.157,5.6785 -18.562,7.4688 -7.406,1.7905 -16.072,2.6562 -26,2.6562 l -50.281,0 z" />
    <path
       style="font-size:500px;font-style:normal;font-variant:normal;font-weight:bold;font-stretch:normal;line-height:125%;letter-spacing:-40px;word-spacing:0px;fill:#000000;fill-opacity:1;stroke:none;font-family:Segoe UI;-inkscape-font-specification:Sans Bold"
       sodipodi:nodetypes="sssccsssccs"
       inkscape:connector-curvature="0"
       id="path3033-9-1-0-09-1-7-8"
       d="m 425.30986,1449.0274 c 0,105.1432 -48.991,157.7148 -146.973,157.7148 -95.052,0 -142.578,-51.3509 -142.578,-154.0527 l 0,-208.0059 79.102,0 0,208.9824 c 0,56.6407 22.135,84.961 66.406,84.961 43.457,0 65.185,-27.3437 65.185,-82.0313 l 0,-211.9121 78.857,0 z" />
    <path
       style="font-size:500px;font-style:normal;font-variant:normal;font-weight:bold;font-stretch:normal;line-height:125%;letter-spacing:-40px;word-spacing:0px;fill:#000000;fill-opacity:1;stroke:none;font-family:Segoe UI;-inkscape-font-specification:Sans Bold"
       sodipodi:nodetypes="cssssccccsssscc"
       inkscape:connector-curvature="0"
       id="path3037-3-1-2-4-5-1-8"
       d="m 998.38586,1606.7421 -100.098,0 c -53.711,0 -95.947,-15.7877 -126.709,-47.3632 -30.761,-31.5754 -46.142,-73.649 -46.142,-126.2207 0,-55.9893 17.293,-101.3995 51.88,-136.2304 34.586,-34.8304 79.467,-52.2453 134.643,-52.2457 l 86.426,0 0,67.871 -80.078,0 c -32.878,3e-4 -59.408,10.3352 -79.59,31.0055 -20.182,20.6708 -30.273,48.6656 -30.273,83.9844 0,33.8543 9.521,60.8318 28.564,80.9326 19.043,20.101 44.678,30.1515 76.904,30.1515 l 84.473,0 z" />
    <path
       sodipodi:nodetypes="ccccccccccccccsccccccccscccscccsccscc"
       inkscape:connector-curvature="0"
       style="font-size:500px;font-style:normal;font-variant:normal;font-weight:bold;font-stretch:normal;line-height:125%;letter-spacing:-40px;word-spacing:0px;fill:#000000;fill-opacity:1;stroke:none;font-family:Segoe UI;-inkscape-font-specification:Sans Bold"
       id="path3035-54-3-4-8-2-1-2"
       d="m 435.30986,1244.6836 0,61.0935 25.922,0 0,300.9687 78.875,0 0,-138.625 21.219,0 c 4.882,10e-5 9.412,1.0525 13.562,3.1563 4.151,2.1042 8.144,5.1383 11.969,9.0937 3.825,3.9557 7.6,8.7269 11.344,14.2813 3.743,5.5547 7.649,11.8681 11.719,18.9374 l 54.437,93.1563 90.594,0 98.835,-0.5357 c -30.226,-1.0101 -61.448,-15.2638 -92.21,-46.8393 -6.307,-6.474 -11.955,-13.3934 -16.969,-20.75 l -31.718,0 -24.125,-38.9375 c -3.419,-5.5546 -7.194,-11.2241 -11.344,-17.0312 -4.151,-5.807 -8.506,-11.2315 -13.063,-16.2813 -4.557,-5.0496 -9.274,-9.4625 -14.156,-13.25 -4.883,-3.7871 -9.917,-6.5354 -15.125,-8.2187 l 0,-1 c 11.881,-3.5347 22.659,-8.4282 32.344,-14.6563 9.684,-6.2277 17.945,-13.6341 24.781,-22.2187 6.836,-8.5843 12.131,-18.2176 15.875,-28.9063 3.743,-10.6882 5.594,-22.3443 5.594,-34.9687 0,-65.6454 -42.477,-98.4688 -127.438,-98.4688 l -125,0 z m 104.796,61.0935 35.625,0 c 36.621,0 54.937,15.8244 54.938,47.4687 0,15.1492 -5.209,27.8576 -15.625,38.125 -10.254,10.0995 -23.855,15.1564 -40.782,15.1563 l -34.156,0 z" />
  </g>
</svg>
