<?xml version="1.0" encoding="UTF-8" standalone="no"?>
<!-- Created with Inkscape (http://www.inkscape.org/) -->

<svg
   xmlns:dc="http://purl.org/dc/elements/1.1/"
   xmlns:cc="http://creativecommons.org/ns#"
   xmlns:rdf="http://www.w3.org/1999/02/22-rdf-syntax-ns#"
   xmlns:svg="http://www.w3.org/2000/svg"
   xmlns="http://www.w3.org/2000/svg"
   xmlns:sodipodi="http://sodipodi.sourceforge.net/DTD/sodipodi-0.dtd"
   xmlns:inkscape="http://www.inkscape.org/namespaces/inkscape"
   width="105.28137mm"
   height="31.551655mm"
   viewBox="0 0 373.0442 111.7972"
   id="svg4211"
   version="1.1"
   inkscape:version="0.91 r13725"
   sodipodi:docname="logo1.svg">
  <defs
     id="defs4213" />
  <sodipodi:namedview
     id="base"
     pagecolor="#ffffff"
     bordercolor="#666666"
     borderopacity="1.0"
     inkscape:pageopacity="0.0"
     inkscape:pageshadow="2"
     inkscape:zoom="1.4142136"
     inkscape:cx="236.95032"
     inkscape:cy="122.44432"
     inkscape:document-units="px"
     inkscape:current-layer="layer1"
     showgrid="false"
     fit-margin-top="0"
     fit-margin-left="0"
     fit-margin-right="0"
     fit-margin-bottom="0"
     inkscape:window-width="1536"
     inkscape:window-height="801"
     inkscape:window-x="-8"
     inkscape:window-y="-8"
     inkscape:window-maximized="1" />
  <metadata
     id="metadata4216">
    <rdf:RDF>
      <cc:Work
         rdf:about="">
        <dc:format>image/svg+xml</dc:format>
        <dc:type
           rdf:resource="http://purl.org/dc/dcmitype/StillImage" />
        <dc:title></dc:title>
      </cc:Work>
    </rdf:RDF>
  </metadata>
  <g
     inkscape:label="Layer 1"
     inkscape:groupmode="layer"
     id="layer1"
     transform="translate(-149.98264,-550.74932)">
    <g
       id="g4798">
      <g
         transform="translate(-390.91777,467.45862)"
         style="font-style:normal;font-weight:normal;font-size:70px;line-height:125%;font-family:sans-serif;letter-spacing:0px;word-spacing:0px;fill:#000000;fill-opacity:1;stroke:none;stroke-width:1px;stroke-linecap:butt;stroke-linejoin:miter;stroke-opacity:1"
         id="flowRoot4191-2">
        <path
           d="m 582.55039,137.4707 0,-5.11 -3.92,-0.28 -9.73,-16.24 c 6.02,-2.1 9.73,-6.16 9.73,-14.49 l 0,-0.49 c 0,-12.879997 -9.66,-15.399997 -21.7,-15.399997 -5.32,0 -10.71,0 -16.03,0 l 0,5.18 3.78,0.35 0,41.019997 -3.78,0.35 0,5.11 14,0 0,-5.11 -3.78,-0.35 0,-14.77 c 2.03,0 3.99,0 6.02,0 1.54,0 3.5,0 4.9,-0.07 l 12.25,20.3 8.26,0 z m -10.43,-36.12 c 0,8.19 -4.83,10.22 -14.98,10.22 -2.03,0 -3.99,0 -6.02,0 l 0,-20.369997 c 1.96,0 3.85,0 5.81,0 10.08,0 15.19,1.47 15.19,9.659997 l 0,0.49 z"
           style="font-style:normal;font-variant:normal;font-weight:normal;font-stretch:normal;font-family:'Soho Std';-inkscape-font-specification:'Soho Std'"
           id="path4141" />
        <path
           d="m 619.12758,120.5307 0,-2.8 c 0,-12.95 -5.18,-19.739997 -16.52,-19.739997 -10.92,0 -16.31,6.859997 -16.31,18.969997 l 0,2.94 c 0,12.46 3.99,18.55 17.64,18.55 6.37,0 11.06,-0.84 13.72,-1.54 l 0,-5.04 c -3.64,0.63 -9.17,1.12 -13.44,1.12 -10.64,0 -11.62,-5.04 -11.62,-11.69 l 0,-0.77 26.53,0 z m -6.51,-5.18 -19.95,0 0,-0.7 c 0,-4.69 1.19,-11.2 10.01,-11.2 8.96,0 9.94,6.51 9.94,11.2 l 0,0.7 z"
           style="font-style:normal;font-variant:normal;font-weight:normal;font-stretch:normal;font-family:'Soho Std';-inkscape-font-specification:'Soho Std'"
           id="path4143" />
        <path
           d="m 653.24273,127.7407 c 0,-5.95 -2.66,-8.33 -11.62,-12.32 l -2.8,-1.19 c -5.46,-2.38 -6.72,-3.64 -6.72,-6.65 0,-3.5 2.31,-4.2 7.91,-4.2 1.4,0 4.27,0.14 6.3,0.28 l 0.7,3.92 4.9,0 0,-8.189997 c -1.4,-0.49 -7,-1.4 -12.18,-1.4 -9.66,0 -13.93,3.149997 -13.93,9.589997 0,5.53 3.15,8.68 10.57,11.83 l 2.8,1.19 c 6.58,2.8 7.77,3.85 7.77,7.28 0,3.36 -1.68,5.18 -8.26,5.18 -2.31,0 -4.55,-0.14 -6.79,-0.28 l -0.7,-4.83 -4.9,0 0,8.96 c 1.26,0.42 7.21,1.54 12.6,1.54 11.41,0 14.35,-5.18 14.35,-10.71 z"
           style="font-style:normal;font-variant:normal;font-weight:normal;font-stretch:normal;font-family:'Soho Std';-inkscape-font-specification:'Soho Std'"
           id="path4145" />
        <path
           d="m 673.62586,137.4707 0,-5.18 -3.71,-0.28 0,-33.039997 -10.08,0 0,5.179997 3.78,0.35 0,27.51 -3.78,0.28 0,5.18 13.79,0 z m -3.64,-45.639997 0,-8.54 -6.37,0 0,8.54 6.37,0 z"
           style="font-style:normal;font-variant:normal;font-weight:normal;font-stretch:normal;font-family:'Soho Std';-inkscape-font-specification:'Soho Std'"
           id="path4147" />
        <path
           d="m 718.7868,122.7707 c 0,-8.19 -4.2,-11.62 -12.67,-15.33 l -7.28,-3.22 c -4.69,-2.1 -5.95,-3.22 -5.95,-5.809997 0,-3.5 2.73,-4.62 8.12,-4.62 2.24,0 5.04,0.07 7.42,0.21 l 0.77,3.99 7.91,0 0,-11.9 c -3.01,-0.7 -9.94,-1.82 -16.8,-1.82 -13.16,0 -20.3,4.13 -20.3,14.49 0,8.119997 4.76,11.829997 12.11,15.119997 l 7.56,3.36 c 4.76,2.1 6.09,3.36 6.09,6.23 0,3.85 -2.45,5.53 -8.05,5.53 -2.52,0 -5.11,0 -7.77,-0.14 l -0.7,-4.2 -7.91,0 0,12.32 c 3.36,0.84 10.64,1.68 17.99,1.68 12.11,0 19.46,-5.39 19.46,-15.89 z"
           style="font-style:normal;font-variant:normal;font-weight:bold;font-stretch:normal;font-family:'Soho Std';-inkscape-font-specification:'Soho Std Bold'"
           id="path4149" />
        <path
           d="m 766.86695,98.830703 0,-13.37 -43.26,0 0,13.37 7.63,0 0.7,-3.57 6.79,0 0,32.899997 -3.36,0.35 0,8.96 19.74,0 0,-8.96 -3.29,-0.35 0,-32.899997 6.79,0 0.7,3.57 7.56,0 z"
           style="font-style:normal;font-variant:normal;font-weight:bold;font-stretch:normal;font-family:'Soho Std';-inkscape-font-specification:'Soho Std Bold'"
           id="path4151" />
        <path
           d="m 817.2418,114.0207 0,-5.11 c 0,-18.269997 -9.24,-24.639997 -22.61,-24.639997 -13.44,0 -22.68,6.37 -22.68,24.639997 l 0,5.11 c 0,18.2 9.17,24.64 22.68,24.64 13.44,0 22.61,-6.44 22.61,-24.64 z m -12.88,0 c 0,10.92 -3.64,14.21 -9.73,14.21 -6.16,0 -9.8,-3.29 -9.8,-14.21 l 0,-5.11 c 0,-10.709997 3.57,-14.209997 9.8,-14.209997 6.23,0 9.73,3.5 9.73,14.209997 l 0,5.11 z"
           style="font-style:normal;font-variant:normal;font-weight:bold;font-stretch:normal;font-family:'Soho Std';-inkscape-font-specification:'Soho Std Bold'"
           id="path4153" />
        <path
           d="m 841.43773,137.4707 0,-9.03 -3.29,-0.35 0,-9.03 4.83,0 c 1.05,0 2.45,0 3.43,-0.07 l 10.64,18.48 12.53,0 0,-9.03 -3.78,-0.35 -7.14,-11.62 c 5.18,-2.52 8.26,-6.72 8.26,-14.35 l 0,-0.42 c 0,-14.349997 -11.06,-16.869997 -24.08,-16.869997 -7.42,0 -14.49,0.28 -20.58,0.63 l 0,9.03 3.29,0.35 0,33.249997 -3.29,0.35 0,9.03 19.18,0 z m 12.81,-35.14 c 0,5.6 -3.15,7.42 -10.85,7.42 -1.82,0 -3.5,0 -5.25,-0.07 l 0,-14.839997 5.04,0 c 7.7,0 11.06,1.26 11.06,7.069997 l 0,0.42 z"
           style="font-style:normal;font-variant:normal;font-weight:bold;font-stretch:normal;font-family:'Soho Std';-inkscape-font-specification:'Soho Std Bold'"
           id="path4155" />
        <path
           d="m 913.94461,137.4707 0,-13.09 -7.91,0 -0.63,3.36 -13.79,0 0,-12.25 20.86,0 0,-9.31 -20.86,0 0,-10.989997 13.79,0 0.63,3.22 7.91,0 0,-12.95 -38.64,0 0,9.03 3.22,0.35 0,33.249997 -3.22,0.35 0,9.03 38.64,0 z"
           style="font-style:normal;font-variant:normal;font-weight:bold;font-stretch:normal;font-family:'Soho Std';-inkscape-font-specification:'Soho Std Bold'"
           id="path4157" />
      </g>
      <path
         sodipodi:nodetypes="cccccccccc"
         inkscape:connector-curvature="0"
         id="path4231-4"
         d="m 149.98262,635.08713 119.33737,0 13.75419,-21.53616 21.71713,43.07231 20.99323,-42.89133 20.99323,42.89133 21.71713,-43.61524 20.45031,43.79623 11.22051,-21.71714 122.8609,0"
         style="fill:none;fill-rule:evenodd;stroke:#000000;stroke-width:5.06733131;stroke-linecap:butt;stroke-linejoin:miter;stroke-miterlimit:4;stroke-dasharray:none;stroke-opacity:1" />
    </g>
  </g>
</svg>
